<svg width="80" height="80" viewBox="0 0 80 80" fill="none" xmlns="http://www.w3.org/2000/svg">
  <!-- Background gradient -->
  <defs>
    <linearGradient id="iconGradientIcon" x1="0%" y1="0%" x2="100%" y2="100%">
      <stop offset="0%" style="stop-color:#3B82F6;stop-opacity:1" />
      <stop offset="100%" style="stop-color:#6366F1;stop-opacity:1" />
    </linearGradient>
    <filter id="shadowIcon" x="-20%" y="-20%" width="140%" height="140%">
      <feDropShadow dx="0" dy="4" stdDeviation="8" flood-color="#000000" flood-opacity="0.2"/>
    </filter>
  </defs>
  
  <!-- Icon background with shadow -->
  <rect x="8" y="8" width="64" height="64" rx="18" fill="url(#iconGradientIcon)" filter="url(#shadowIcon)"/>
  
  <!-- CircuitBoard Icon -->
  <g transform="translate(24, 24)">
    <!-- Main circuit paths -->
    <path d="M16 4V12M16 20V28M4 16H12M20 16H28M16 16H24M16 16V24M24 16V24M16 24H24" 
          stroke="white" stroke-width="3" stroke-linecap="round" stroke-linejoin="round"/>
    
    <!-- Circuit nodes/dots -->
    <circle cx="16" cy="16" r="3" fill="white"/>
    <circle cx="24" cy="16" r="3" fill="white"/>
    <circle cx="16" cy="24" r="3" fill="white"/>
    <circle cx="24" cy="24" r="3" fill="white"/>
    
    <!-- Additional circuit elements -->
    <rect x="13" y="13" width="6" height="6" rx="2" fill="url(#iconGradientIcon)" stroke="white" stroke-width="2"/>
    <rect x="21" y="21" width="6" height="6" rx="2" fill="url(#iconGradientIcon)" stroke="white" stroke-width="2"/>
    
    <!-- Extra circuit details -->
    <path d="M8 20H11M25 20H28M20 8V11M20 25V28" 
          stroke="white" stroke-width="2" stroke-linecap="round"/>
    <path d="M12 12L14 14M26 14L28 12M14 26L12 28M26 26L28 28" 
          stroke="white" stroke-width="1.5" stroke-linecap="round"/>
  </g>
</svg>