<svg xmlns="http://www.w3.org/2000/svg" viewBox="0 0 937 938"><defs><style>.cls-1,.cls-3,.cls-4,.cls-5,.cls-6{fill:none}.cls-1,.cls-2,.cls-3,.cls-4,.cls-5,.cls-6{stroke:#1a1a1a;stroke-miterlimit:10}.cls-1{stroke-width:31px}.cls-2{fill:#1a1a1a}.cls-3{stroke-width:20px}.cls-4{stroke-width:22px}.cls-5{stroke-width:16px}.cls-6{stroke-width:14px}</style></defs><title>black</title><g id="Layer_2" data-name="Layer 2"><g id="Layer_1-2" data-name="Layer 1"><rect width="373.83" height="373.83" x="275.93" y="291.69" class="cls-1" rx="12.83" ry="12.83"/><rect width="22.37" height="22.37" x="592.65" y="324.93" class="cls-2" rx="7" ry="7"/><circle cx="690.5" cy="136.5" r="28.5" class="cls-3"/><circle cx="54.5" cy="437.5" r="28.5" class="cls-3"/><circle cx="854.5" cy="437.5" r="28.5" class="cls-3"/><circle cx="672.5" cy="888.5" r="28.5" class="cls-3"/><circle cx="368" cy="50" r="39" class="cls-4"/><circle cx="887" cy="296" r="39" class="cls-4"/><circle cx="848" cy="693" r="39" class="cls-4"/><circle cx="426" cy="888" r="39" class="cls-4"/><circle cx="204" cy="837" r="39" class="cls-4"/><circle cx="50" cy="246" r="39" class="cls-4"/><circle cx="502" cy="80" r="18" class="cls-4"/><circle cx="153" cy="516" r="18" class="cls-4"/><circle cx="808" cy="516" r="18" class="cls-4"/><circle cx="504" cy="819" r="18" class="cls-4"/><circle cx="339" cy="160" r="24" class="cls-4"/><circle cx="98" cy="598" r="24" class="cls-4"/><polyline points="64 285 89 358 237 358" class="cls-5"/><line x1="83" x2="237" y1="437" y2="437" class="cls-5"/><line x1="131" x2="239" y1="600" y2="600" class="cls-5"/><line x1="178" x2="241" y1="518" y2="518" class="cls-5"/><polyline points="401 86 422 108 422 257" class="cls-6"/><polyline points="662 148 587 195 587 257" class="cls-6"/><polyline points="842 313 773.83 351 685 351" class="cls-6"/><polyline points="826 654 788.68 600 685 600" class="cls-6"/><polyline points="648.98 872.41 590.79 814.21 590.79 701" class="cls-6"/><polyline points="243 811 334 762 334 701" class="cls-6"/><line x1="502" x2="502" y1="108" y2="255" class="cls-6"/><line x1="339" x2="339" y1="184" y2="257" class="cls-6"/><line x1="422" x2="422" y1="844" y2="701" class="cls-6"/><line x1="504" x2="504" y1="801" y2="701" class="cls-6"/><line x1="790" x2="685" y1="516" y2="516" class="cls-6"/><line x1="826" x2="685" y1="437" y2="437" class="cls-6"/><path d="M462.25,413a67.5,67.5,0,1,0,67.5,67.5A67.5,67.5,0,0,0,462.25,413Zm0,106a38,38,0,1,1,38-38A38,38,0,0,1,462.25,519Z" class="cls-2"/><path d="M462.25,340a139.5,139.5,0,1,0,139.5,139.5A139.5,139.5,0,0,0,462.25,340Zm0,219.07a78.54,78.54,0,1,1,78.53-78.54A78.53,78.53,0,0,1,462.25,559.07Z" class="cls-2"/><path d="M462.75,454a28,28,0,1,0,28,28A28,28,0,0,0,462.75,454Zm0,44a15.77,15.77,0,1,1,15.76-15.76A15.76,15.76,0,0,1,462.75,498Z" class="cls-2"/><path d="M462.88,472A10.13,10.13,0,1,0,473,482.13,10.12,10.12,0,0,0,462.88,472Zm0,15.9a5.7,5.7,0,1,1,5.69-5.7A5.7,5.7,0,0,1,462.88,487.9Z" class="cls-2"/></g></g></svg>