<svg xmlns="http://www.w3.org/2000/svg" width="1080" height="1920" viewBox="0 0 1080 1920" role="img" aria-labelledby="title desc">
  <title id="title">Atria Dawn Preview on Orvix</title><desc id="desc">Atria Dawn Preview Instagram story.</desc>
  <defs><pattern id="grid" width="96" height="96" patternUnits="userSpaceOnUse"><path d="M96 0H0V96" fill="none" stroke="#40363a"/></pattern><pattern id="microgrid" width="16" height="16" patternUnits="userSpaceOnUse"><path d="M16 0H0V16" fill="none" stroke="#171015" stroke-opacity=".16"/></pattern><filter id="glow"><feGaussianBlur stdDeviation="14"/></filter></defs>
  <rect width="1080" height="1920" fill="#0d0b10"/><rect width="1080" height="1920" fill="url(#grid)" opacity=".42"/><path d="M0 250H1080M72 0V1920M1008 0V1920" stroke="#40363a"/>
  <path d="M0 1260L1080 1136V1920H0Z" fill="#d97868"/><path d="M0 1260 1080 1136" stroke="#f2b185" stroke-width="18"/><rect y="1080" width="1080" height="840" fill="url(#microgrid)"/>
  <g transform="translate(400 220)"><g transform="skewX(-7)"><rect x="0" y="28" width="32" height="46" fill="#f2b185"/><rect x="43" width="36" height="74" fill="#f2b185"/><rect x="90" y="18" width="33" height="56" fill="#ffe0bc"/></g><text x="150" y="65" fill="#f8f5ef" font-family="Arial,sans-serif" font-size="54" font-weight="800">Orvix</text></g>
  <g transform="translate(374 330)"><rect width="332" height="54" rx="27" fill="#171318" stroke="#40363a"/><circle cx="27" cy="27" r="5" fill="#f2b185"/><text x="50" y="35" fill="#b8a8a6" font-family="monospace" font-size="17" font-weight="700" letter-spacing="2.5">MODEL PREVIEW / 01</text></g>
  <image x="400" y="430" width="280" height="210" preserveAspectRatio="xMidYMid meet" href="assets/atria-logo-final.png"/><image x="390" y="660" width="300" height="100" preserveAspectRatio="xMidYMid meet" href="assets/atria.png"/>
  <text x="540" y="850" fill="#f2b185" font-family="Arial,sans-serif" font-size="22" font-weight="800" letter-spacing="6" text-anchor="middle">MULTIMODAL INTELLIGENCE</text><text x="540" y="960" fill="#f8f5ef" font-family="Arial Black,Arial,sans-serif" font-size="96" font-weight="900" text-anchor="middle">ATRIA</text><text x="540" y="1070" fill="#f8f5ef" font-family="Arial Black,Arial,sans-serif" font-size="96" font-weight="900" text-anchor="middle">DAWN</text>
  <g transform="translate(72 1316)"><text x="468" fill="#0d0b10" font-family="monospace" font-size="18" font-weight="800" letter-spacing="3" text-anchor="middle">NOW AVAILABLE ON ORVIX</text><path d="M0 28H936" stroke="#0d0b10" stroke-opacity=".4" stroke-width="2"/><text x="468" y="124" fill="#0d0b10" font-family="Arial Black,Arial,sans-serif" font-size="72" font-weight="900" text-anchor="middle">Meet Atria</text><rect y="160" width="936" height="116" rx="4" fill="#0d0b10"/><text x="468" y="232" fill="#f8f5ef" font-family="monospace" font-size="28" font-weight="700" text-anchor="middle">platform.orvix.id</text></g>
</svg>
