<?xml version="1.0" encoding="UTF-8"?>
<svg id="Layer_1" data-name="Layer 1" xmlns="http://www.w3.org/2000/svg" viewBox="0 0 1000 500">
  <defs>
    <style>
      .cls-1 {
        fill: #265dfe;
      }
    </style>
  </defs>
  <path class="cls-1" d="M89.6,285.76l13.13-74.22,19.78-16.93h56.97l16.14,19.46-13.29,75.01-19.31,16.3h-57.28l-16.14-19.62ZM153.06,287.03l9.49-8.07,10.29-57.92-6.65-8.07h-34.02l-9.49,8.07-10.44,57.92,6.65,8.07h34.18Z"/>
  <path class="cls-1" d="M218.09,194.62h18.67l20.41,71.53h.32l45.42-71.53h21.2l-19.46,110.77h-20.73l11.87-67.41h-.32l-34.5,51.9h-13.29l-16.14-51.9h-.32l-11.87,67.41h-20.73l19.46-110.77Z"/>
  <path class="cls-1" d="M344.85,194.62h19.31l36.24,75.17h.32l13.13-75.17h20.73l-19.62,110.77h-19.31l-35.92-75.01h-.32l-13.29,75.01h-20.73l19.46-110.77Z"/>
  <path class="cls-1" d="M455.93,194.62h21.52l-19.62,110.77h-21.52l19.62-110.77Z"/>
  <path class="cls-1" d="M498.81,194.62h78.33l-3.17,18.2h-56.81l-5.38,30.7h49.21l-3.17,18.2h-49.21l-7.75,43.67h-21.52l19.46-110.77Z"/>
  <path class="cls-1" d="M589.96,194.62h21.52l-16.3,92.57h55.23l-3.16,18.2h-76.75l19.46-110.77Z"/>
  <path class="cls-1" d="M658.63,285.76l13.13-74.22,19.78-16.93h56.97l16.14,19.46-13.29,75.01-19.31,16.3h-57.28l-16.14-19.62ZM722.09,287.03l9.49-8.07,10.29-57.92-6.65-8.07h-34.02l-9.49,8.07-10.44,57.92,6.65,8.07h34.18Z"/>
  <path class="cls-1" d="M779.21,194.62h21.21l-.32,78.17h.63l35.76-78.17h16.14l7.75,78.17h.63l27.22-78.17h22.15l-42.41,110.77h-20.1l-8.39-77.86h-.63l-36.08,77.86h-20.1l-3.48-110.77Z"/>
</svg>